<?xml version="1.0" encoding="utf-8"?>
<!-- Generator: Adobe Illustrator 24.1.2, SVG Export Plug-In . SVG Version: 6.00 Build 0)  -->
<svg version="1.1" id="Layer_1" xmlns="http://www.w3.org/2000/svg" xmlns:xlink="http://www.w3.org/1999/xlink" x="0px" y="0px"
	 viewBox="0 0 234 52.9" style="enable-background:new 0 0 234 52.9;" xml:space="preserve">
<style type="text/css">
	.st0{enable-background:new    ;}
	.st1{fill:#FFFFFF;}
	.st2{fill:url(#SVGID_1_);}
</style>
<g id="Layer_2_1_">
	<g id="Layer_1-2">
		<g class="st0">
			<path class="st1" d="M64.9,24.9l-5.2,1.7v11.1h-6.9V7.2h6.9v12.5L57.3,21l7.6-2.6V7.2h6.9v30.5h-6.9V24.9z"/>
			<path class="st1" d="M74.4,37.7V7.2h6.9v30.5H74.4z"/>
			<path class="st1" d="M90.8,26.6v4.5l-2.6,0.5h10.4v6.1H83.9V7.2h14.8v6.1h-7.9v6.4L88.5,21l8.2-2.8v6.4L90.8,26.6z"/>
			<path class="st1" d="M119.6,35.1c0,1.7-0.9,2.6-2.6,2.6h-13.9c-1.7,0-2.6-0.9-2.6-2.6V7.2h6.9v23.9l-2.6,0.5h6.5
				c0.9,0,1.3-0.5,1.3-1.3V7.2h6.9L119.6,35.1L119.6,35.1z"/>
			<path class="st1" d="M138.6,27.9v9.7h-6.9V7.2h16.5c1.7,0,2.6,0.9,2.6,2.6v11.5c0,1.7-0.8,2.9-2.5,3.5L138.6,27.9z M138.6,13.3
				v7.8l-2.4,1.2l6.4-2c0.8-0.2,1.2-0.8,1.2-1.7v-4c0-0.9-0.5-1.3-1.3-1.3H138.6z"/>
			<path class="st1" d="M164.6,24.9l-5.2,1.7v11.1h-6.9V7.2h6.9v12.5L157,21l7.6-2.6V7.2h6.9v30.5h-6.9V24.9z"/>
			<path class="st1" d="M193.3,37.7h-6.9V24.9l-5.2,1.7v11.1h-6.9V9.8c0-1.7,0.9-2.6,2.6-2.6h13.9c1.7,0,2.6,0.9,2.6,2.6v27.9H193.3
				z M181.1,19.7l-2.4,1.3l7.6-2.6v-3.8c0-0.9-0.5-1.3-1.3-1.3h-2.6c-0.9,0-1.3,0.5-1.3,1.3V19.7z"/>
			<path class="st1" d="M210.2,24L214,7.2h10.6v30.5h-6.9V20.8l0.8-5.8l-5.2,22.6h-6.2L201.9,15l0.8,5.8v16.9h-6.9V7.2h10.6
				L210.2,24z"/>
		</g>
		<path class="st1" d="M19.2,2.8v19.8c-1.1-0.6-2.3-1.2-3.3-1.9c-0.7-0.4-1.5-0.7-2.2-1V0l0,0L19.2,2.8z"/>
		<path class="st1" d="M27.1,35.2v17.6L21.5,50V32.8l2.1,1.1C24.7,34.5,25.9,34.9,27.1,35.2z"/>
		
			<linearGradient id="SVGID_1_" gradientUnits="userSpaceOnUse" x1="4.3449" y1="1619.5251" x2="36.965" y2="1584.4652" gradientTransform="matrix(1 0 0 1 0 -1575.3386)">
			<stop  offset="0" style="stop-color:#65499C"/>
			<stop  offset="7.000000e-02" style="stop-color:#884E97"/>
			<stop  offset="0.16" style="stop-color:#AD5492"/>
			<stop  offset="0.24" style="stop-color:#CA588E"/>
			<stop  offset="0.33" style="stop-color:#DE5B8B"/>
			<stop  offset="0.42" style="stop-color:#EB5D8A"/>
			<stop  offset="0.5" style="stop-color:#EF5E89"/>
			<stop  offset="0.59" style="stop-color:#EF6085"/>
			<stop  offset="0.69" style="stop-color:#F06778"/>
			<stop  offset="0.79" style="stop-color:#F27164"/>
			<stop  offset="0.89" style="stop-color:#F48047"/>
			<stop  offset="0.99" style="stop-color:#F79422"/>
			<stop  offset="1" style="stop-color:#F7961D"/>
		</linearGradient>
		<path class="st2" d="M40.3,21.8c-0.1-5.6-3.6-10.5-8.8-12.5c-3.2-1.1-6.7-1.3-10-0.8v15.4c2,1,3.8,1.9,4.9,2.5l0.2,0.1
			c0.1,0.1,0.3,0.1,0.5,0.2V14.1c1.2,0,2.4,0.3,3.5,0.9c2.5,1.3,4,4,3.9,6.8c0,1.9-0.7,3.7-2.1,5l0,0c-1.8,1.6-4.5,2-6.7,1
			c-2.5-1.2-7.1-3.5-10.6-5.6c-1.9-1.2-4.2-1.7-6.5-1.3H8.4c-2,0.5-3.7,1.5-5.1,3c-0.9,1-1.7,2.2-2.1,3.4l-0.1,0.1
			c-0.4,1.4-0.7,2.8-0.6,4.3V32c0,1.8,0.4,3.5,1.2,5.1c0.7,1.4,1.6,2.6,2.7,3.6l0,0l0.1,0.1c1.3,1.1,2.7,2,4.2,2.6l0.2,0.1
			c3.2,1.1,6.6,1.3,9.9,0.7l0.4-0.1h0.1v-8.4l-0.5-0.2l-5.1-2.6v5.9h-0.5c-1.2,0-2.4-0.4-3.4-0.9c-0.4-0.2-0.7-0.4-1-0.7
			c-2.2-1.7-3.1-4.5-2.3-7.1c0.2-0.7,0.5-1.3,1-1.8l0,0c0.3-0.4,0.7-0.7,1.1-0.9c1.8-1,4-1,5.9-0.1c1.1,0.6,5.6,2.9,9.9,5.2
			c3.4,1.8,6.4,2,9.7,0.3c0.9-0.5,1.8-1.1,2.5-1.9l0,0C39.1,28.5,40.4,25.2,40.3,21.8z M13.8,28.8L13.8,28.8l-0.1,3l5.1,2.6l0.5,0.2
			v-3C16.6,30.3,14.5,29.1,13.8,28.8L13.8,28.8z"/>
		<g class="st0">
			<path class="st1" d="M57.4,49c-0.4,0.1-1.2,0.4-2.1,0.4c-1,0-1.9-0.3-2.5-0.9c-0.6-0.6-0.9-1.5-0.9-2.5c0-2,1.4-3.5,3.7-3.5
				c0.8,0,1.4,0.2,1.7,0.3L57,43.4c-0.4-0.2-0.8-0.3-1.5-0.3c-1.7,0-2.7,1-2.7,2.7s1,2.7,2.6,2.7c0.6,0,1-0.1,1.2-0.2v-2h-1.4v-0.7
				h2.2C57.4,45.6,57.4,49,57.4,49z"/>
			<path class="st1" d="M58.8,42.6c0.4-0.1,1.1-0.1,1.7-0.1c0.9,0,1.5,0.2,2,0.6c0.3,0.3,0.5,0.8,0.5,1.3c0,0.9-0.6,1.5-1.3,1.7l0,0
				c0.5,0.2,0.8,0.7,1,1.4c0.2,1,0.4,1.6,0.5,1.9h-0.9c-0.1-0.2-0.3-0.8-0.5-1.6c-0.2-0.9-0.6-1.3-1.4-1.3h-0.8v2.9h-0.9v-6.8
				C58.7,42.6,58.8,42.6,58.8,42.6z M59.6,45.7h0.9c0.9,0,1.5-0.5,1.5-1.3c0-0.9-0.6-1.3-1.6-1.3c-0.4,0-0.7,0-0.9,0.1L59.6,45.7
				L59.6,45.7z"/>
			<path class="st1" d="M65.3,47.1l-0.7,2.1h-0.9l2.3-6.8h1.1l2.3,6.8h-0.9l-0.7-2.1H65.3z M67.6,46.5l-0.7-2
				c-0.2-0.4-0.3-0.8-0.4-1.2l0,0c-0.1,0.4-0.2,0.8-0.3,1.2l-0.7,2H67.6z"/>
			<path class="st1" d="M70.4,42.6c0.4-0.1,1-0.1,1.7-0.1c0.9,0,1.5,0.2,1.9,0.6c0.4,0.3,0.6,0.8,0.6,1.4c0,0.6-0.2,1.1-0.5,1.5
				c-0.5,0.5-1.2,0.7-2.1,0.7c-0.3,0-0.5,0-0.7-0.1v2.7h-0.9V42.6z M71.3,45.8c0.2,0,0.4,0.1,0.7,0.1c1.1,0,1.7-0.5,1.7-1.5
				c0-0.9-0.6-1.3-1.6-1.3c-0.4,0-0.7,0-0.8,0.1C71.3,43.2,71.3,45.8,71.3,45.8z"/>
			<path class="st1" d="M76.7,42.5v2.8H80v-2.8h0.9v6.8H80v-3.2h-3.3v3.2h-0.9v-6.8H76.7z"/>
			<path class="st1" d="M83.3,42.5v6.8h-0.9v-6.8H83.3z"/>
			<path class="st1" d="M89.5,49.1c-0.3,0.2-1,0.3-1.8,0.3c-1.9,0-3.4-1.2-3.4-3.4c0-2.1,1.4-3.6,3.6-3.6c0.8,0,1.4,0.2,1.6,0.3
				l-0.2,0.7c-0.3-0.2-0.8-0.3-1.4-0.3c-1.6,0-2.7,1-2.7,2.8c0,1.7,1,2.7,2.6,2.7c0.5,0,1.1-0.1,1.4-0.3L89.5,49.1z"/>
			<path class="st1" d="M92.8,42.6c0.5-0.1,1.2-0.1,1.9-0.1c1.3,0,2.2,0.3,2.8,0.8c0.6,0.6,1,1.3,1,2.4c0,1.1-0.3,2-1,2.6
				c-0.6,0.6-1.7,1-3,1c-0.6,0-1.2,0-1.6-0.1v-6.6C92.9,42.6,92.8,42.6,92.8,42.6z M93.7,48.6c0.2,0,0.5,0.1,0.9,0.1
				c1.9,0,2.9-1.1,2.9-2.9c0-1.6-0.9-2.6-2.8-2.6c-0.5,0-0.8,0-1,0.1V48.6z"/>
			<path class="st1" d="M103,46.1h-2.6v2.5h2.9v0.7h-3.8v-6.8h3.7v0.7h-2.8v2.2h2.6C103,45.4,103,46.1,103,46.1z"/>
			<path class="st1" d="M104.4,48.2c0.4,0.2,1,0.4,1.6,0.4c0.9,0,1.4-0.5,1.4-1.2c0-0.6-0.4-1-1.3-1.4c-1.1-0.4-1.8-1-1.8-1.9
				c0-1.1,0.9-1.8,2.2-1.8c0.7,0,1.2,0.2,1.5,0.3l-0.2,0.7c-0.2-0.1-0.7-0.3-1.3-0.3c-0.9,0-1.3,0.6-1.3,1c0,0.6,0.4,0.9,1.4,1.3
				c1.2,0.4,1.7,1,1.7,2s-0.8,2-2.4,2c-0.7,0-1.4-0.2-1.7-0.4L104.4,48.2z"/>
			<path class="st1" d="M110.3,42.5v6.8h-0.9v-6.8H110.3z"/>
			<path class="st1" d="M117.1,49c-0.4,0.1-1.2,0.4-2.1,0.4c-1,0-1.9-0.3-2.5-0.9c-0.6-0.6-0.9-1.5-0.9-2.5c0-2,1.4-3.5,3.7-3.5
				c0.8,0,1.4,0.2,1.7,0.3l-0.2,0.7c-0.4-0.2-0.8-0.3-1.5-0.3c-1.7,0-2.7,1-2.7,2.7s1,2.7,2.6,2.7c0.6,0,1-0.1,1.2-0.2v-2H115v-0.7
				h2.2L117.1,49L117.1,49z"/>
			<path class="st1" d="M118.4,49.3v-6.8h1l2.2,3.4c0.5,0.8,0.9,1.5,1.2,2.2l0,0c-0.1-0.9-0.1-1.7-0.1-2.8v-2.8h0.8v6.8h-0.9
				l-2.2-3.5c-0.5-0.8-0.9-1.5-1.3-2.3l0,0c0,0.9,0.1,1.7,0.1,2.8v2.9L118.4,49.3L118.4,49.3z"/>
			<path class="st1" d="M128.6,46.1H126v2.5h2.9v0.7H125v-6.8h3.7v0.7h-2.8v2.2h2.6v0.7C128.5,46.1,128.6,46.1,128.6,46.1z"/>
			<path class="st1" d="M130,42.6c0.4-0.1,1.1-0.1,1.7-0.1c0.9,0,1.5,0.2,2,0.6c0.3,0.3,0.5,0.8,0.5,1.3c0,0.9-0.6,1.5-1.3,1.7l0,0
				c0.5,0.2,0.8,0.7,1,1.4c0.2,1,0.4,1.6,0.5,1.9h-0.9c-0.1-0.2-0.3-0.8-0.5-1.6c-0.2-0.9-0.6-1.3-1.4-1.3h-0.8v2.9H130V42.6z
				 M130.9,45.7h0.9c0.9,0,1.5-0.5,1.5-1.3c0-0.9-0.6-1.3-1.6-1.3c-0.4,0-0.7,0-0.9,0.1v2.5H130.9z"/>
			<path class="st1" d="M139.6,46.2v0.7h-2.5v-0.7H139.6z"/>
			<path class="st1" d="M148,49c-0.4,0.1-1.2,0.4-2.1,0.4c-1,0-1.9-0.3-2.5-0.9c-0.6-0.6-0.9-1.5-0.9-2.5c0-2,1.4-3.5,3.7-3.5
				c0.8,0,1.4,0.2,1.7,0.3l-0.2,0.7c-0.4-0.2-0.8-0.3-1.5-0.3c-1.7,0-2.7,1-2.7,2.7s1,2.7,2.6,2.7c0.6,0,1-0.1,1.2-0.2v-2h-1.4v-0.7
				h2.2V49H148z"/>
			<path class="st1" d="M150.5,47.1l-0.7,2.1h-0.9l2.3-6.8h1.1l2.3,6.8h-0.9l-0.7-2.1H150.5z M152.7,46.5l-0.7-2
				c-0.2-0.4-0.3-0.8-0.4-1.2l0,0c-0.1,0.4-0.2,0.8-0.3,1.2l-0.7,2H152.7z"/>
			<path class="st1" d="M161.2,46.3c-0.1-0.9-0.1-2.1-0.1-2.9l0,0c-0.2,0.8-0.5,1.6-0.9,2.6l-1.2,3.3h-0.7l-1.1-3.2
				c-0.3-1-0.6-1.8-0.8-2.6l0,0c0,0.8-0.1,2-0.1,3l-0.2,2.9h-0.8l0.5-6.8h1.1l1.2,3.3c0.3,0.8,0.5,1.6,0.7,2.3l0,0
				c0.2-0.7,0.4-1.4,0.7-2.3l1.2-3.3h1.1l0.4,6.8h-0.9L161.2,46.3z"/>
			<path class="st1" d="M167.1,46.1h-2.6v2.5h2.9v0.7h-3.8v-6.8h3.7v0.7h-2.8v2.2h2.6L167.1,46.1L167.1,46.1z"/>
			<path class="st1" d="M170.7,42.6c0.5-0.1,1.2-0.1,1.9-0.1c1.3,0,2.2,0.3,2.8,0.8c0.6,0.6,1,1.3,1,2.4c0,1.1-0.3,2-1,2.6
				c-0.6,0.6-1.7,1-3,1c-0.6,0-1.2,0-1.6-0.1L170.7,42.6L170.7,42.6z M171.6,48.6c0.2,0,0.5,0.1,0.9,0.1c1.9,0,2.9-1.1,2.9-2.9
				c0-1.6-0.9-2.6-2.8-2.6c-0.5,0-0.8,0-1,0.1L171.6,48.6L171.6,48.6z"/>
			<path class="st1" d="M181,46.1h-2.6v2.5h2.9v0.7h-3.8v-6.8h3.7v0.7h-2.8v2.2h2.6L181,46.1L181,46.1z"/>
			<path class="st1" d="M184,49.3l-2.2-6.8h0.9l1.1,3.4c0.3,0.9,0.5,1.7,0.7,2.5l0,0c0.2-0.8,0.5-1.6,0.8-2.5l1.2-3.4h0.9l-2.4,6.8
				H184z"/>
			<path class="st1" d="M191.7,46.1H189v2.5h2.9v0.7h-3.8v-6.8h3.7v0.7H189v2.2h2.6L191.7,46.1L191.7,46.1z"/>
			<path class="st1" d="M193.1,42.5h0.9v6.1h2.9v0.7h-3.8L193.1,42.5L193.1,42.5z"/>
			<path class="st1" d="M203.3,45.8c0,2.3-1.4,3.6-3.2,3.6S197,48,197,45.9c0-2.2,1.3-3.6,3.2-3.6C202.1,42.4,203.3,43.8,203.3,45.8
				z M198,45.9c0,1.5,0.8,2.8,2.2,2.8s2.2-1.3,2.2-2.8c0-1.4-0.7-2.8-2.2-2.8C198.8,43.1,198,44.4,198,45.9z"/>
			<path class="st1" d="M204.5,42.6c0.4-0.1,1-0.1,1.7-0.1c0.9,0,1.5,0.2,1.9,0.6c0.4,0.3,0.6,0.8,0.6,1.4c0,0.6-0.2,1.1-0.5,1.5
				c-0.5,0.5-1.2,0.7-2.1,0.7c-0.3,0-0.5,0-0.7-0.1v2.7h-0.9V42.6z M205.3,45.8c0.2,0,0.4,0.1,0.7,0.1c1.1,0,1.7-0.5,1.7-1.5
				c0-0.9-0.6-1.3-1.6-1.3c-0.4,0-0.7,0-0.8,0.1L205.3,45.8L205.3,45.8z"/>
			<path class="st1" d="M213.4,46.1h-2.6v2.5h3v0.7H210v-6.8h3.7v0.7h-2.8v2.2h2.6L213.4,46.1L213.4,46.1z"/>
			<path class="st1" d="M214.8,42.6c0.4-0.1,1.1-0.1,1.7-0.1c0.9,0,1.5,0.2,2,0.6c0.3,0.3,0.5,0.8,0.5,1.3c0,0.9-0.6,1.5-1.3,1.7
				l0,0c0.5,0.2,0.8,0.7,1,1.4c0.2,1,0.4,1.6,0.5,1.9h-0.9c-0.1-0.2-0.3-0.8-0.5-1.6c-0.2-0.9-0.6-1.3-1.4-1.3h-0.8v2.9h-0.9
				L214.8,42.6L214.8,42.6z M215.7,45.7h0.9c0.9,0,1.5-0.5,1.5-1.3c0-0.9-0.6-1.3-1.6-1.3c-0.4,0-0.7,0-0.9,0.1v2.5H215.7z"/>
		</g>
	</g>
</g>
</svg>
